<?xml version="1.0" encoding="UTF-8"?>
<svg enable-background="new 0 0 1024 768" viewport-fill="#e79d63" version="1.1" viewBox="0 0 1024 768" xml:space="preserve" xmlns="http://www.w3.org/2000/svg">
		<path d="m293 312.9h-4.5v30.7c-2-3.5-4.6-6.3-7.9-8.3s-7.1-3-11.2-3c-4.4 0-8.4 1.1-11.9 3.1-3.6 2-6.4 4.9-8.4 8.5s-3 7.7-3 12.3c0 4.7 1 8.7 3 12.3s4.8 6.5 8.4 8.5c3.5 2.1 7.5 3.1 11.9 3.1 4.2 0 8-1 11.4-3 3.3-2 5.9-4.8 7.8-8.5v11.1h4.4v-66.8zm-13.8 60.6c-2.9 1.7-6 2.5-9.6 2.5s-6.8-0.8-9.7-2.5c-2.9-1.6-5.1-4-6.8-7-1.6-3-2.4-6.4-2.4-10.3 0-3.8 0.8-7.2 2.4-10.3 1.6-3 3.9-5.3 6.8-7 2.9-1.6 6.1-2.5 9.7-2.5s6.8 0.9 9.6 2.5c2.9 1.7 5.1 4 6.8 7 1.6 3.1 2.5 6.5 2.5 10.3 0 3.9-0.9 7.3-2.5 10.3-1.7 3-3.9 5.4-6.8 7z" fill="#EAE7D4"/>
		<path d="m358.5 374.4c-2.6 1.1-5.5 1.6-8.5 1.6-4.9 0-8.9-1.3-12.3-3.8s-5.8-5.9-6.8-10.3l39.7-7.7c-0.3-4.1-1.3-7.8-3.2-11.2-2-3.3-4.6-5.9-7.8-7.8s-6.9-2.9-11-2.9c-4.4 0-8.4 1.1-11.8 3.1-3.5 2.1-6.2 4.9-8.2 8.5s-2.9 7.7-2.9 12.3c0 4.7 1 8.7 3.1 12.3s4.9 6.5 8.6 8.5c3.7 2.1 7.8 3.1 12.6 3.1 3.6 0 6.9-0.6 10.1-1.9 3-1.3 5.6-3.1 7.6-5.8l-2.6-3c-1.8 2.3-4 3.9-6.6 5zm-19.5-35.6c2.8-1.6 5.9-2.5 9.5-2.5 3.1 0 5.9 0.7 8.5 2.1 2.5 1.4 4.5 3.2 6.1 5.5 1.5 2.3 2.5 5 3 7.7l-35.8 7c-0.2-1.2-0.2-2.1-0.2-2.8 0-3.7 0.7-7.1 2.3-10.1 1.5-2.9 3.7-5.3 6.6-6.9z" fill="#EAE7D4"/>
		<path d="m440.2 332.7h-4.6l-18.9 42-18.7-42h-4.8l21.2 47h4.6l21.2-47z" fill="#B1AF9E"/>
		<path d="m495 374.4c-2.6 1.1-5.5 1.6-8.5 1.6-4.9 0-8.9-1.3-12.3-3.8s-5.8-5.9-6.8-10.3l39.7-7.7c-0.3-4.1-1.3-7.8-3.2-11.2-2-3.3-4.6-5.9-7.8-7.8s-6.9-2.9-11-2.9c-4.4 0-8.4 1.1-11.8 3.1-3.5 2.1-6.2 4.9-8.2 8.5s-2.9 7.7-2.9 12.3c0 4.7 1 8.7 3.1 12.3s5 6.5 8.6 8.5c3.7 2.1 7.8 3.1 12.6 3.1 3.6 0 6.9-0.6 10.1-1.9 3-1.3 5.6-3.1 7.6-5.8l-2.6-3c-1.9 2.3-4 3.9-6.6 5zm-19.6-35.6c2.8-1.6 5.9-2.5 9.5-2.5 3.1 0 5.9 0.7 8.5 2.1s4.5 3.2 6.1 5.5c1.5 2.3 2.5 5 3 7.7l-35.8 7c-0.2-1.2-0.2-2.1-0.2-2.8 0-3.7 0.7-7.1 2.3-10.1 1.6-2.9 3.8-5.3 6.6-6.9z" fill="#B1AF9E"/>
		<path d="m539.8 312.9v66.8h4.5v-66.8h-4.5z" fill="#807E71"/>
		<path d="m692 335.4c-3.6-2-7.6-3.1-11.9-3.1-4.2 0-8 1.1-11.4 3.1s-6 4.8-7.8 8.4v-11.1h-4.3v64.4h4.5v-28.1c1.8 3.5 4.4 6.2 7.8 8.2 3.3 2 7.1 2.9 11.2 2.9 4.3 0 8.3-1 11.9-3 3.5-2 6.3-4.9 8.3-8.5s3.1-7.7 3.1-12.4c0-4.6-1.1-8.7-3.1-12.3s-4.8-6.4-8.3-8.5zm-2.4 38.1c-2.9 1.7-6.1 2.5-9.7 2.5s-6.8-0.8-9.7-2.5c-2.9-1.6-5.1-4-6.8-7-1.6-3-2.4-6.4-2.4-10.3 0-3.8 0.8-7.2 2.4-10.3 1.6-3 3.9-5.3 6.8-7 2.9-1.6 6.1-2.5 9.7-2.5s6.8 0.9 9.7 2.5c2.9 1.7 5.1 4 6.8 7 1.6 3.1 2.5 6.5 2.5 10.3 0 3.9-0.9 7.3-2.5 10.3-1.7 3-3.9 5.4-6.8 7z" fill="#47463B"/>
		<path d="m777.9 312.9h-4.5v30.7c-2-3.5-4.6-6.3-7.9-8.3s-7.1-3-11.2-3c-4.4 0-8.4 1.1-11.9 3.1-3.6 2-6.4 4.9-8.4 8.5s-3 7.7-3 12.3c0 4.7 1 8.7 3 12.3s4.8 6.5 8.4 8.5c3.5 2.1 7.5 3.1 11.9 3.1 4.2 0 8-1 11.4-3 3.3-2 5.9-4.8 7.8-8.5v11.1h4.4v-66.8zm-13.8 60.6c-2.9 1.7-6 2.5-9.6 2.5s-6.8-0.8-9.7-2.5c-2.9-1.6-5.1-4-6.8-7-1.6-3-2.4-6.4-2.4-10.3 0-3.8 0.8-7.2 2.4-10.3 1.6-3 3.9-5.3 6.8-7 2.9-1.6 6.1-2.5 9.7-2.5s6.8 0.9 9.6 2.5c2.9 1.7 5.1 4 6.8 7 1.6 3.1 2.5 6.5 2.5 10.3 0 3.9-0.9 7.3-2.5 10.3s-3.9 5.4-6.8 7z" fill="#47463B"/>
		<path d="m603.4 368.8c-0.7-0.3-1.5-0.2-2.1 0.1-0.4 0.2-0.7 0.4-0.9 0.7-0.6-0.8-1.8-1.2-2.8-0.8-1.3 0.5-2.2 2.2-3.4 2.7 2 1.4 3.6 3.2 7 2.9 2.4-0.2 3.5-1.9 5.3-2.8-0.2-0.1-0.5-0.4-0.8-0.6-0.6-0.9-1.5-1.9-2.3-2.2zm-3-40.9c-18.3 0-33.2 20.1-33.2 38.5 0 9.1 16.3 16.5 32.8 16.6 16.8 0.1 33.7-7.4 33.7-16.6 0-18.4-14.9-38.5-33.3-38.5zm0 53.7c-11.3 0-20.4-12.4-20.4-23.6 0-5.7 10.4-10.3 20.7-10.2 10.1 0 20.1 4.6 20.1 10.2 0.1 11.2-9.1 23.6-20.4 23.6z" fill="#807E71"/>
	<g fill="#EAE7D4">
		<path d="m236.8 446.3v-28.1h11.7c1.2 0 2.4 0.3 3.4 0.8 1.1 0.5 2 1.2 2.7 2.1 0.8 0.8 1.4 1.8 1.8 2.9s0.6 2.1 0.6 3.2c0 1.2-0.2 2.3-0.6 3.4s-1 2-1.7 2.9c-0.7 0.8-1.6 1.5-2.6 2s-2.1 0.8-3.4 0.8h-8.4v10.1h-3.5zm3.6-13.3h8.2c0.7 0 1.4-0.1 2-0.4s1.1-0.7 1.5-1.3 0.8-1.2 1-1.9 0.4-1.5 0.4-2.3-0.1-1.6-0.4-2.3-0.6-1.3-1.1-1.9c-0.4-0.5-1-0.9-1.6-1.2s-1.3-0.4-1.9-0.4h-8l-0.1 11.7z"/>
		<path d="m274.4 428.6c-1.7 0.1-3.3 0.5-4.6 1.3s-2.3 2-2.8 3.5v12.8h-3.5v-20.7h3.2v4.8c0.7-1.4 1.7-2.6 2.8-3.4 1.2-0.9 2.4-1.4 3.7-1.5h0.7 0.5v3.2z"/>
		<path d="m288.9 446.7c-1.6 0-3-0.3-4.3-0.9s-2.4-1.4-3.3-2.3c-0.9-1-1.6-2.1-2.1-3.4s-0.8-2.7-0.8-4.1c0-1.5 0.3-2.8 0.8-4.1s1.2-2.4 2.1-3.4 2-1.8 3.3-2.3c1.3-0.6 2.7-0.9 4.2-0.9s2.9 0.3 4.2 0.9 2.4 1.4 3.3 2.3c0.9 1 1.6 2.1 2.1 3.4s0.8 2.7 0.8 4.1-0.3 2.8-0.8 4.1-1.2 2.4-2.1 3.4-2 1.8-3.3 2.3c-1.2 0.6-2.6 0.9-4.1 0.9zm-6.9-10.7c0 1.1 0.2 2.1 0.5 3 0.4 0.9 0.9 1.7 1.5 2.4s1.4 1.2 2.2 1.6 1.7 0.6 2.7 0.6 1.8-0.2 2.7-0.6c0.8-0.4 1.6-0.9 2.2-1.6s1.1-1.5 1.5-2.5 0.6-2 0.6-3.1-0.2-2-0.6-3c-0.3-1-0.8-1.8-1.5-2.5-0.6-0.7-1.4-1.3-2.2-1.7s-1.7-0.6-2.7-0.6-1.8 0.2-2.7 0.6c-0.8 0.4-1.5 1-2.2 1.7-0.6 0.7-1.1 1.5-1.5 2.5-0.3 1.1-0.5 2.1-0.5 3.2z"/>
		<path d="m314.3 446.5c-1.4 0-2.7-0.3-3.9-0.9s-2.2-1.4-3-2.3c-0.8-1-1.5-2.1-2-3.4-0.4-1.3-0.7-2.6-0.7-4 0-1.5 0.2-2.8 0.7-4.1s1.1-2.5 2-3.4c0.8-1 1.8-1.7 3-2.3s2.5-0.9 3.9-0.9c1.7 0 3.2 0.4 4.5 1.3s2.3 1.9 3.2 3.2v-4.1h3.1v20.4c0 1.5-0.3 2.8-0.8 3.9-0.6 1.1-1.3 2.1-2.3 2.9s-2.1 1.3-3.4 1.7-2.6 0.6-4.1 0.6c-2.4 0-4.3-0.4-5.7-1.2-1.5-0.8-2.7-1.9-3.6-3.3l2-1.8c0.8 1.2 1.9 2.1 3.2 2.7s2.7 0.9 4.2 0.9c1 0 1.8-0.1 2.7-0.4s1.6-0.7 2.3-1.2c0.6-0.5 1.1-1.2 1.5-2s0.6-1.7 0.6-2.8v-3.6c-0.4 0.6-0.9 1.2-1.4 1.7s-1.1 0.9-1.7 1.3c-0.6 0.3-1.3 0.6-2 0.8-0.8 0.2-1.5 0.3-2.3 0.3zm1.1-2.9c0.7 0 1.5-0.1 2.1-0.4 0.7-0.3 1.3-0.6 1.9-1s1.1-1 1.5-1.5c0.4-0.6 0.7-1.1 0.8-1.7v-5.9c-0.3-0.7-0.7-1.4-1.1-1.9-0.4-0.6-1-1.1-1.5-1.5-0.6-0.4-1.2-0.8-1.9-1s-1.3-0.4-2-0.4c-1.1 0-2 0.2-2.9 0.7-0.8 0.4-1.5 1-2.1 1.8-0.6 0.7-1 1.6-1.3 2.5s-0.5 1.9-0.5 2.8c0 1 0.2 2 0.6 2.9s0.9 1.7 1.5 2.4 1.4 1.2 2.2 1.7c0.7 0.3 1.7 0.5 2.7 0.5z"/>
		<path d="m344.2 428.6c-1.7 0.1-3.3 0.5-4.6 1.3s-2.3 2-2.8 3.5v12.8h-3.5v-20.7h3.2v4.8c0.7-1.4 1.7-2.6 2.8-3.4 1.2-0.9 2.4-1.4 3.7-1.5h0.7 0.5v3.2z"/>
		<path d="m355.4 446.7c-1 0-1.9-0.2-2.7-0.5s-1.6-0.8-2.2-1.4-1.1-1.3-1.5-2c-0.3-0.8-0.5-1.7-0.5-2.6 0-1 0.2-1.8 0.6-2.6s1-1.5 1.8-2c0.8-0.6 1.7-1 2.8-1.3s2.3-0.5 3.5-0.5c1 0 2 0.1 3.1 0.3 1 0.2 1.9 0.4 2.7 0.8v-1.7c0-1.7-0.5-3-1.4-4-1-1-2.3-1.5-4-1.5-2.1 0-4.3 0.8-6.6 2.4l-1.1-2.3c2.7-1.8 5.3-2.7 8-2.7s4.8 0.7 6.3 2.2 2.3 3.5 2.3 6.1v8.4c0 0.8 0.4 1.2 1.1 1.3v3c-0.4 0.1-0.7 0.1-0.9 0.1s-0.5 0-0.8 0c-0.7 0-1.2-0.2-1.7-0.6-0.4-0.4-0.6-0.9-0.7-1.5l-0.1-1.5c-0.9 1.2-2.1 2.2-3.5 2.9-1.4 0.8-2.9 1.2-4.5 1.2zm0.9-2.7c1.2 0 2.4-0.2 3.4-0.7 1.1-0.5 1.9-1.1 2.5-1.9 0.5-0.5 0.8-1 0.8-1.5v-3.1c-1.7-0.7-3.4-1-5.3-1-1.7 0-3.2 0.4-4.3 1.1s-1.6 1.7-1.6 2.9c0 0.6 0.1 1.1 0.3 1.6s0.6 0.9 1 1.3 0.9 0.7 1.5 0.9c0.5 0.3 1.1 0.4 1.7 0.4z"/>
		<path d="m405.7 446.3h-3.5v-11.6c0-2.2-0.4-3.8-1.1-4.8s-1.7-1.5-3.1-1.5-2.7 0.5-3.8 1.5-1.9 2.3-2.4 3.9v12.4h-3.5v-11.6c0-2.2-0.3-3.8-1-4.8s-1.7-1.5-3.1-1.5-2.7 0.5-3.8 1.5-1.9 2.3-2.4 3.9v12.5h-3.5v-20.7h3.2v4.4c0.8-1.5 1.9-2.7 3.3-3.5 1.3-0.8 2.9-1.3 4.6-1.3s3.1 0.5 4.1 1.4 1.7 2.1 1.9 3.6c1.8-3.4 4.5-5 7.9-5 1.2 0 2.2 0.2 3 0.7 0.8 0.4 1.5 1 1.9 1.8 0.5 0.8 0.8 1.7 1 2.7s0.3 2.2 0.3 3.4v12.6z"/>
		<path d="m444.8 446.3h-3.5v-11.6c0-2.2-0.4-3.8-1.1-4.8s-1.7-1.5-3.1-1.5-2.7 0.5-3.8 1.5-1.9 2.3-2.4 3.9v12.4h-3.5v-11.6c0-2.2-0.3-3.8-1-4.8s-1.7-1.5-3.1-1.5-2.7 0.5-3.8 1.5-1.9 2.3-2.4 3.9v12.5h-3.5v-20.7h3.2v4.4c0.8-1.5 1.9-2.7 3.3-3.5 1.3-0.8 2.9-1.3 4.6-1.3s3.1 0.5 4.1 1.4 1.7 2.1 1.9 3.6c1.8-3.4 4.5-5 7.9-5 1.2 0 2.2 0.2 3 0.7 0.8 0.4 1.5 1 1.9 1.8 0.5 0.8 0.8 1.7 1 2.7 0.2 1.1 0.3 2.2 0.3 3.4v12.6z"/>
		<path d="m461.9 446.7c-1.6 0-3-0.3-4.3-0.8-1.3-0.6-2.4-1.4-3.3-2.3-0.9-1-1.7-2.1-2.2-3.4s-0.8-2.7-0.8-4.2 0.3-2.8 0.8-4.1 1.3-2.4 2.2-3.4c1-1 2.1-1.7 3.4-2.3s2.7-0.9 4.3-0.9 3 0.3 4.2 0.9c1.3 0.6 2.4 1.4 3.3 2.3 0.9 1 1.6 2.1 2.1 3.4s0.8 2.6 0.8 4v0.8 0.6h-17.4c0.1 1 0.3 2 0.7 2.8s0.9 1.6 1.5 2.2 1.3 1.1 2.1 1.4 1.7 0.5 2.6 0.5c0.6 0 1.3-0.1 1.9-0.2 0.6-0.2 1.2-0.4 1.7-0.7s1-0.6 1.4-1.1c0.4-0.4 0.7-0.9 1-1.4l3 0.8c-0.3 0.8-0.8 1.5-1.4 2.1s-1.3 1.2-2.1 1.7c-0.8 0.4-1.6 0.8-2.6 1.1-0.9 0-1.9 0.2-2.9 0.2zm7.1-12.2c-0.1-1-0.3-1.9-0.8-2.7-0.4-0.8-0.9-1.6-1.5-2.1-0.6-0.6-1.3-1-2.1-1.3s-1.7-0.5-2.6-0.5-1.8 0.2-2.6 0.5-1.5 0.8-2.2 1.4c-0.6 0.6-1.1 1.3-1.5 2.1s-0.6 1.7-0.7 2.7h14z"/>
		<path d="m487.1 446.7c-1.4 0-2.7-0.3-4-0.9-1.2-0.6-2.3-1.4-3.1-2.3-0.9-1-1.6-2.1-2.1-3.4s-0.7-2.7-0.7-4.1c0-1.5 0.2-2.8 0.7-4.1s1.1-2.5 1.9-3.4c0.8-1 1.8-1.7 3-2.3s2.4-0.9 3.8-0.9c1.7 0 3.1 0.4 4.4 1.3s2.4 1.9 3.1 3.2v-12.4h3.5v24.6c0 0.8 0.4 1.2 1.1 1.3v3c-0.4 0.1-0.7 0.1-0.9 0.1h-0.6c-0.7 0-1.3-0.2-1.8-0.7s-0.8-1-0.8-1.6v-1.7c-0.8 1.3-1.9 2.4-3.3 3.2-1.2 0.7-2.6 1.1-4.2 1.1zm0.9-3.1c0.6 0 1.3-0.1 1.9-0.4 0.7-0.2 1.3-0.6 1.9-1s1.1-0.9 1.5-1.5 0.7-1.2 0.9-1.8v-5.9c-0.2-0.7-0.6-1.3-1.1-1.9s-1-1.1-1.6-1.5-1.2-0.8-1.9-1c-0.7-0.3-1.3-0.4-2-0.4-1 0-2 0.2-2.8 0.7-0.8 0.4-1.5 1-2.1 1.7s-1 1.5-1.3 2.5c-0.3 0.9-0.5 1.9-0.5 2.9s0.2 2 0.6 3c0.4 0.9 0.9 1.7 1.5 2.4s1.4 1.2 2.2 1.7c0.8 0.3 1.8 0.5 2.8 0.5z"/>
		<path d="m526.8 445.2c-0.2 0.1-0.5 0.2-0.8 0.4-0.3 0.1-0.7 0.3-1.2 0.4-0.4 0.1-0.9 0.2-1.4 0.3s-1 0.2-1.6 0.2c-1.3 0-2.4-0.3-3.3-1s-1.4-1.8-1.4-3.3v-13.9h-2.8v-2.7h2.8v-6.9h3.5v6.9h4.6v2.7h-4.6v12.8c0.1 0.8 0.3 1.3 0.8 1.7s1 0.5 1.6 0.5c0.7 0 1.3-0.1 1.9-0.3s1-0.4 1.2-0.6l0.7 2.8z"/>
		<path d="m541.2 446.7c-1.6 0-3-0.3-4.3-0.9s-2.4-1.4-3.3-2.3c-0.9-1-1.6-2.1-2.1-3.4s-0.8-2.7-0.8-4.1c0-1.5 0.3-2.8 0.8-4.1s1.2-2.4 2.1-3.4 2-1.8 3.3-2.3c1.3-0.6 2.7-0.9 4.2-0.9s2.9 0.3 4.2 0.9 2.4 1.4 3.3 2.3c0.9 1 1.6 2.1 2.1 3.4s0.8 2.7 0.8 4.1-0.3 2.8-0.8 4.1-1.2 2.4-2.1 3.4-2 1.8-3.3 2.3c-1.1 0.6-2.5 0.9-4.1 0.9zm-6.8-10.7c0 1.1 0.2 2.1 0.5 3 0.4 0.9 0.9 1.7 1.5 2.4s1.4 1.2 2.2 1.6 1.7 0.6 2.7 0.6 1.8-0.2 2.7-0.6c0.8-0.4 1.6-0.9 2.2-1.6s1.1-1.5 1.5-2.5 0.6-2 0.6-3.1-0.2-2-0.6-3c-0.3-1-0.8-1.8-1.5-2.5-0.6-0.7-1.4-1.3-2.2-1.7s-1.7-0.6-2.7-0.6-1.8 0.2-2.7 0.6c-0.8 0.4-1.5 1-2.2 1.7-0.6 0.7-1.1 1.5-1.5 2.5-0.4 1.1-0.5 2.1-0.5 3.2z"/>
		<path d="m579.6 446.7c-1.7 0-3.2-0.4-4.6-1.3-1.3-0.8-2.3-1.9-3.1-3.2v12.5h-3.5v-29.1h3.1v3.9c0.8-1.3 1.9-2.3 3.2-3.1s2.8-1.2 4.4-1.2c1.4 0 2.7 0.3 3.9 0.9s2.2 1.4 3.1 2.4 1.5 2.1 2 3.4 0.8 2.6 0.8 4c0 1.5-0.2 2.9-0.7 4.2-0.4 1.3-1.1 2.4-1.9 3.4s-1.8 1.7-2.9 2.3c-1.2 0.6-2.4 0.9-3.8 0.9zm-1.1-3.1c1 0 2-0.2 2.8-0.6s1.6-1 2.1-1.7c0.6-0.7 1.1-1.6 1.4-2.5s0.5-1.9 0.5-2.9-0.2-2-0.6-2.9c-0.4-1-0.9-1.8-1.5-2.5s-1.4-1.3-2.3-1.7c-0.8-0.4-1.8-0.6-2.8-0.6-0.6 0-1.3 0.1-2 0.4-0.7 0.2-1.3 0.6-1.9 1s-1.1 0.9-1.5 1.5-0.7 1.1-0.8 1.8v5.9c0.3 0.7 0.7 1.3 1.1 1.9s1 1.1 1.5 1.5c0.6 0.4 1.2 0.8 1.9 1 0.7 0.3 1.4 0.4 2.1 0.4z"/>
		<path d="m604.8 446.7c-1.6 0-3-0.3-4.3-0.8-1.3-0.6-2.4-1.4-3.3-2.3-0.9-1-1.7-2.1-2.2-3.4s-0.8-2.7-0.8-4.2 0.3-2.8 0.8-4.1 1.3-2.4 2.2-3.4c1-1 2.1-1.7 3.4-2.3s2.7-0.9 4.3-0.9 3 0.3 4.2 0.9c1.3 0.6 2.4 1.4 3.3 2.3 0.9 1 1.6 2.1 2.1 3.4s0.8 2.6 0.8 4v0.8 0.6h-17.2c0.1 1 0.3 2 0.7 2.8s0.9 1.6 1.5 2.2 1.3 1.1 2.1 1.4 1.7 0.5 2.6 0.5c0.6 0 1.3-0.1 1.9-0.2 0.6-0.2 1.2-0.4 1.7-0.7s1-0.6 1.4-1.1c0.4-0.4 0.7-0.9 1-1.4l3 0.8c-0.3 0.8-0.8 1.5-1.4 2.1s-1.3 1.2-2.1 1.7c-0.8 0.4-1.6 0.8-2.6 1.1-1.1 0-2.1 0.2-3.1 0.2zm7.1-12.2c-0.1-1-0.3-1.9-0.8-2.7-0.4-0.8-0.9-1.6-1.5-2.1-0.6-0.6-1.3-1-2.1-1.3s-1.7-0.5-2.6-0.5-1.8 0.2-2.6 0.5-1.5 0.8-2.2 1.4c-0.6 0.6-1.1 1.3-1.5 2.1s-0.6 1.7-0.7 2.7h14z"/>
		<path d="m632.5 428.6c-1.7 0.1-3.3 0.5-4.6 1.3s-2.3 2-2.8 3.5v12.8h-3.5v-20.7h3.2v4.8c0.7-1.4 1.7-2.6 2.8-3.4 1.2-0.9 2.4-1.4 3.7-1.5h0.7 0.5v3.2z"/>
		<path d="m639.5 446.3v-17.9h-2.8v-2.7h2.8v-0.4c0-2.6 0.6-4.6 1.7-6 1.1-1.5 2.7-2.2 4.6-2.2 0.8 0 1.6 0.1 2.4 0.4 0.8 0.2 1.5 0.5 2.1 0.9l-0.9 2.6c-0.4-0.3-0.8-0.5-1.4-0.6-0.5-0.2-1.1-0.2-1.6-0.2-1.2 0-2 0.4-2.7 1.3-0.6 0.9-0.9 2.1-0.9 3.8v0.6h5.5v2.7h-5.3v17.9h-3.5z"/>
		<path d="m663.2 446.7c-1.6 0-3-0.3-4.3-0.8-1.3-0.6-2.4-1.4-3.3-2.3-0.9-1-1.7-2.1-2.2-3.4s-0.8-2.7-0.8-4.2 0.3-2.8 0.8-4.1 1.3-2.4 2.2-3.4c1-1 2.1-1.7 3.4-2.3s2.7-0.9 4.3-0.9 3 0.3 4.2 0.9c1.3 0.6 2.4 1.4 3.3 2.3 0.9 1 1.6 2.1 2.1 3.4s0.8 2.6 0.8 4v0.8 0.6h-17.2c0.1 1 0.3 2 0.7 2.8s0.9 1.6 1.5 2.2 1.3 1.1 2.1 1.4 1.7 0.5 2.6 0.5c0.6 0 1.3-0.1 1.9-0.2 0.6-0.2 1.2-0.4 1.7-0.7s1-0.6 1.4-1.1c0.4-0.4 0.7-0.9 1-1.4l3 0.8c-0.3 0.8-0.8 1.5-1.4 2.1s-1.3 1.2-2.1 1.7c-0.8 0.4-1.6 0.8-2.6 1.1-1.1 0-2.1 0.2-3.1 0.2zm7.1-12.2c-0.1-1-0.3-1.9-0.8-2.7-0.4-0.8-0.9-1.6-1.5-2.1-0.6-0.6-1.3-1-2.1-1.3s-1.7-0.5-2.6-0.5-1.8 0.2-2.6 0.5-1.5 0.8-2.2 1.4c-0.6 0.6-1.1 1.3-1.5 2.1s-0.6 1.7-0.7 2.7h14z"/>
		<path d="m678.6 435.9c0-1.5 0.3-2.8 0.8-4.1s1.2-2.4 2.1-3.4 2-1.7 3.3-2.3 2.7-0.9 4.3-0.9c2.1 0 3.8 0.5 5.3 1.4s2.6 2.1 3.4 3.6l-3.4 1.1c-0.5-1-1.3-1.7-2.2-2.3-1-0.6-2-0.8-3.2-0.8-1 0-1.8 0.2-2.7 0.6-0.8 0.4-1.6 0.9-2.2 1.6s-1.1 1.5-1.5 2.4c-0.3 0.9-0.5 1.9-0.5 3.1 0 1.1 0.2 2.1 0.6 3.1s0.9 1.8 1.5 2.5 1.4 1.2 2.2 1.6 1.7 0.6 2.7 0.6c0.6 0 1.2-0.1 1.8-0.2 0.6-0.2 1.1-0.4 1.6-0.7s0.9-0.6 1.3-1 0.6-0.8 0.8-1.3l3.4 1c-0.3 0.8-0.8 1.5-1.3 2.1-0.6 0.6-1.2 1.2-2 1.6s-1.6 0.8-2.6 1.1c-0.9 0.3-1.9 0.4-2.9 0.4-1.6 0-3-0.3-4.3-0.9s-2.4-1.4-3.3-2.3-1.7-2.1-2.2-3.4c-0.6-1.4-0.8-2.8-0.8-4.2z"/>
		<path d="m715.1 445.2c-0.2 0.1-0.5 0.2-0.8 0.4-0.3 0.1-0.7 0.3-1.2 0.4-0.4 0.1-0.9 0.2-1.4 0.3s-1 0.2-1.6 0.2c-1.3 0-2.4-0.3-3.3-1s-1.4-1.8-1.4-3.3v-13.9h-2.8v-2.7h2.8v-6.9h3.5v6.9h4.6v2.7h-4.6v12.8c0.1 0.8 0.3 1.3 0.8 1.7 0.4 0.3 1 0.5 1.6 0.5 0.7 0 1.3-0.1 1.9-0.3s1-0.4 1.2-0.6l0.7 2.8z"/>
		<path d="m720.8 446.3v-20.7h3.5v20.7h-3.5zm0-24.6v-4.4h3.5v4.4h-3.5z"/>
		<path d="m741.5 446.7c-1.6 0-3-0.3-4.3-0.9s-2.4-1.4-3.3-2.3c-0.9-1-1.6-2.1-2.1-3.4s-0.8-2.7-0.8-4.1c0-1.5 0.3-2.8 0.8-4.1s1.2-2.4 2.1-3.4 2-1.8 3.3-2.3c1.3-0.6 2.7-0.9 4.2-0.9s2.9 0.3 4.2 0.9 2.4 1.4 3.3 2.3c0.9 1 1.6 2.1 2.1 3.4s0.8 2.7 0.8 4.1-0.3 2.8-0.8 4.1-1.2 2.4-2.1 3.4-2 1.8-3.3 2.3c-1.2 0.6-2.6 0.9-4.1 0.9zm-6.9-10.7c0 1.1 0.2 2.1 0.5 3 0.4 0.9 0.9 1.7 1.5 2.4s1.4 1.2 2.2 1.6 1.7 0.6 2.7 0.6 1.8-0.2 2.7-0.6c0.8-0.4 1.6-0.9 2.2-1.6s1.1-1.5 1.5-2.5 0.6-2 0.6-3.1-0.2-2-0.6-3c-0.3-1-0.8-1.8-1.5-2.5-0.6-0.7-1.4-1.3-2.2-1.7s-1.7-0.6-2.7-0.6-1.8 0.2-2.7 0.6c-0.8 0.4-1.5 1-2.2 1.7-0.6 0.7-1.1 1.5-1.5 2.5-0.3 1.1-0.5 2.1-0.5 3.2z"/>
		<path d="m776.6 446.3h-3.5v-11.6c0-2.2-0.3-3.8-1-4.8s-1.7-1.5-3.1-1.5c-0.7 0-1.4 0.1-2.1 0.4s-1.4 0.6-2 1.1-1.2 1-1.7 1.7-0.8 1.4-1.1 2.2v12.5h-3.5v-20.7h3.2v4.4c0.8-1.5 2-2.6 3.5-3.5 1.6-0.9 3.2-1.3 5.1-1.3 1.2 0 2.2 0.2 3 0.7 0.8 0.4 1.4 1 1.9 1.8s0.8 1.7 1 2.7c0.2 1.1 0.3 2.2 0.3 3.4v12.5z"/>
		<path d="m784.2 446.3v-4.4h2.9v4.4h-2.9z"/>
	</g>
</svg>
